# AST/ASF file generated using VICON BodyLanguage
# -----------------------------------------------
:version 1.10
:name VICON
:units
  mass 1.0
  length 0.45
  angle deg
:documentation
   .ast/.asf automatically generated from VICON data using
   VICON BodyBuilder and BodyLanguage model FoxedUp or BRILLIANT.MOD
:root
   order TX TY TZ RX RY RZ
   axis XYZ
   position 0 0 0  
   orientation 0 0 0 
:bonedata
  begin
     id 1 
     name lhipjoint
     direction 0.535335 -0.74333 0.401095 
     length 2.04549 
     axis 0 0 0  XYZ
  end
  begin
     id 2 
     name lfemur
     direction 0.34202 -0.939693 0  
     length 6.95643  
     axis 0 0 20  XYZ
    dof rx ry rz
    limits (-160.0 20.0)
           (-70.0 70.0)
           (-60.0 70.0)
  end
  begin
     id 3 
     name ltibia
     direction 0.34192 -0.939729 0   
     length 5.55969   
     axis 0 0 20   XYZ
    dof rx
    limits (-10.0 170.0)
  end
  begin
     id 4 
     name lfoot
     direction 0.216943 -0.596046 0.773088   
     length 2.27918   
     axis -90 7.62852e-016 20   XYZ
    dof rx rz
    limits (-45.0 90.0)
           (-70.0 20.0)
  end
  begin
     id 5 
     name ltoes
     direction 1.53519e-011 -4.21748e-011 1   
     length 1.05562   
     axis -90 7.62852e-016 20   XYZ
    dof rx
    limits (-90.0 20.0)
  end
  begin
     id 6 
     name rhipjoint
     direction -0.576368 -0.719173 0.38806   
     length 2.1142  
     axis 0 0 0  XYZ 
  end
  begin
     id 7 
     name rfemur
     direction -0.34202 -0.939693 0   
     length 7.07928   
     axis 0 0 -20   XYZ
    dof rx ry rz
    limits (-160.0 20.0)
           (-70.0 70.0)
           (-70.0 60.0)
  end
  begin
     id 8 
     name rtibia
     direction -0.34202 -0.939693 0   
     length 5.79974   
     axis 0 0 -20   XYZ
    dof rx
    limits (-10.0 170.0)
 end
 begin
     id 9 
     name rfoot
     direction -0.189288 -0.520065 0.832888   
     length 2.42173  
     axis -90 -7.62852e-016 -20   XYZ
    dof rx rz
    limits (-45.0 90.0)
           (-20.0 70.0)
  end
  begin
     id 10 
     name rtoes
     direction -1.53574e-011 -4.21658e-011 1   
     length 1.14469   
     axis -90 -7.62852e-016 -20   XYZ
    dof rx
    limits (-90.0 20.0)
  end
  begin
     id 11 
     name lowerback
     direction -0.00135702 0.993803 0.111144   
     length 1.91308   
     axis 0 0 0   XYZ
    dof rx ry rz
    limits (-20.0 45.0)
           (-30.0 30.0)
           (-30.0 30.0)
  end
  begin
     id 12 
     name upperback
     direction -0.0056745 0.999813 0.0184631   
     length 1.9212   
     axis 0 0 0   XYZ
    dof rx ry rz
    limits (-20.0 45.0)
           (-30.0 30.0)
           (-30.0 30.0)
  end
  begin
     id 13 
     name thorax
     direction -0.00733434 0.999426 -0.0330788   
     length 1.94196   
     axis 0 0 0   XYZ
    dof rx ry rz
    limits (-20.0 45.0)
           (-30.0 30.0)
           (-30.0 30.0)
  end
  begin
     id 14 
     name lowerneck
     direction 0.0563074 0.996944 -0.0541571   
     length 2.34257   
     axis 0 0 0   XYZ
    dof rx ry rz
    limits (-20.0 45.0)
           (-30.0 30.0)
           (-30.0 30.0)
  end
  begin
     id 15 
     name upperneck
     direction -0.0544519 0.976166 -0.210085   
     length 2.32506   
     axis 0 0 0   XYZ
    dof rx ry rz
    limits (-20.0 45.0)
           (-30.0 30.0)
           (-30.0 30.0)
  end
  begin
     id 16
     name head
     direction -0.0226035 0.997615 -0.0652205  
     length 2.3648  
     axis 0 0 0   XYZ
    dof rx ry rz
    limits (-20.0 45.0)
           (-30.0 30.0)
           (-30.0 30.0)
  end
  begin
     id 17 
     name lclavicle
     direction 0.92109 0.381297 -0.0787716  
     length 4.0487  
     axis 0 0 0   XYZ
    dof ry rz
    limits (-20.0 10.0)
           (0.0 20.0)
  end
  begin
     id 18 
     name lhumerus
     direction 1 -4.48986e-011 3.56724e-027   
     length 4.94991   
     axis 180 -30 -90   XYZ
    dof rx ry rz
    limits (-60.0 90.0)
           (-90.0 90.0)
           (-90.0 90.0)
  end
  begin
     id 19
     name lradius
     direction 1 -4.48981e-011 8.62147e-027   
     length 2.7606   
     axis 180 -30 -90   XYZ
    dof rx
    limits (-10.0 170.0)
  end
  begin
     id 20
     name lwrist
     direction 1 -4.48989e-011 1.59799e-026   
     length 1.3803   
     axis -1.17785e-014 90 90   XYZ
    dof ry
    limits (-180.0 0.0)
 end
  begin
     id 21 
     name lhand
     direction 1 -4.48896e-011 3.19599e-026   
     length 0.843936   
     axis -2.03931e-014 90 90   XYZ
    dof rx rz
    limits (-90.0 90.0)
           (-45.0 45.0)
  end
  begin
     id 22 
     name lfingers
     direction 1 -4.48887e-011 6.39197e-026   
     length 0.680403   
     axis -4.07862e-014 90 90   XYZ
    dof rx
    limits (0.0 90.0)
  end
  begin
     id 23
     name lthumb
     direction 0.707107 -6.348e-011 0.707107   
     length 0.976926   
     axis -90 45 2.85299e-015   XYZ
    dof rx rz
    limits (-45.0 45.0)
           (-45.0 45.0)
  end
  begin
     id 24 
     name rclavicle
     direction -0.951104 0.307692 -0.026953   
     length 4.21801  
     axis 0 0 0   XYZ 
    dof ry rz
    limits (-10.0 20.0)
           (-20.0 0.0)
  end
  begin
     id 25 
     name rhumerus
     direction -1 -4.4896e-011 -1.8171e-018  
     length 4.32982   
     axis 180 30 90   XYZ
    dof rx ry rz
    limits (-90.0 60.0)
           (-90.0 90.0)
           (-90.0 90.0)
  end
  begin
     id 26 
     name rradius
     direction -1 -4.48959e-011 8.25165e-027   
     length 3.20057   
     axis 180 30 90   XYZ
    dof rx
    limits (-10.0 170.0)
  end
  begin
     id 27 
     name rwrist
     direction -1 -4.48997e-011 1.59799e-026   
     length 1.60029   
     axis -1.17785e-014 -90 -90   XYZ
    dof ry
    limits (-180.0 0.0)
  end
  begin
     id 28
     name rhand
     direction -1 -4.49023e-011 3.19599e-026   
     length 0.960433   
     axis -2.03931e-014 -90 -90   XYZ
    dof rx rz
    limits (-90.0 90.0)
           (-45.0 45.0)
  end
  begin
     id 29
     name rfingers
     direction -1 -4.48802e-011 6.39197e-026   
     length 0.774326   
     axis -4.07862e-014 -90 -90   XYZ
    dof rx
    limits (0.0 90.0)
  end
  begin
     id 30
     name rthumb
     direction -0.707107 -6.34876e-011 0.707107   
     length 1.11178   
     axis -90 -45 -2.85299e-015   XYZ
    dof rx rz
    limits (-45.0 45.0)
           (-45.0 45.0)
  end
:hierarchy
  begin
    root lhipjoint rhipjoint lowerback
    lhipjoint lfemur
    lfemur ltibia
    ltibia lfoot
    lfoot ltoes
    rhipjoint rfemur
    rfemur rtibia
    rtibia rfoot
    rfoot rtoes
    lowerback upperback
    upperback thorax
    thorax lowerneck lclavicle rclavicle
    lowerneck upperneck
    upperneck head
    lclavicle lhumerus
    lhumerus lradius
    lradius lwrist
    lwrist lhand lthumb
    lhand lfingers
    rclavicle rhumerus
    rhumerus rradius
    rradius rwrist
    rwrist rhand rthumb
    rhand rfingers
end

#!OML:ASF C:\KaitlinTest1\Natural Motions\Nikki\Session 2\Nikki.ASF
:FULLY-SPECIFIED
:DEGREES
439
root 0.664613 16.5996 5.44639 -156.421 83.894 -168.952
lowerback -8.56606 -3.55978 1.60506
upperback -1.6783 -4.85336 0.581447
thorax 2.96619 -2.38227 -0.824227
lowerneck 16.62 -4.3699 -18.0106
upperneck 15.8889 48.7284 10.9405
head 175.315 59.4 -29.1012
rclavicle 3.06253e-014 -1.07344e-014
rhumerus -40.0382 -20.4261 -76.7757
rradius 17.7176
rwrist 22.2179
rhand -37.8233 2.94795
rfingers 7.12502
rthumb -10.8688 -26.7508
lclavicle 3.06253e-014 -1.07344e-014
lhumerus -40.0404 20.7661 79.1441
lradius 20.1881
lwrist -40.2037
lhand -33.8894 4.14674
lfingers 7.12502
lthumb -7.07282 34.0086
rfemur -20.9666 -19.3095 24.1914
rtibia 26.3181
rfoot -15.4279 14.3184
rtoes -9.70069e-014
lfemur -24.2905 20.2347 -21.197
ltibia 27.0474
lfoot -7.90537 -25.5335
ltoes -7.4743e-014
440
root 0.653819 16.6033 5.43884 -156.38 83.9086 -168.926
lowerback -8.49356 -3.54985 1.62042
upperback -1.71843 -4.83865 0.576503
thorax 2.88306 -2.37591 -0.829489
lowerneck 16.7163 -4.35401 -18.0254
upperneck 15.9457 48.771 10.9813
head 175.329 59.3196 -29.0739
rclavicle -3.01159e-014 2.06736e-014
rhumerus -40.149 -20.0836 -76.9023
rradius 17.8901
rwrist 21.4065
rhand -37.8702 2.94096
rfingers 7.12502
rthumb -10.9141 -26.7554
lclavicle -3.01159e-014 2.06736e-014
lhumerus -40.413 20.8886 78.8175
lradius 20.2501
lwrist -40.2686
lhand -33.6577 4.15443
lfingers 7.12502
lthumb -6.84915 34.0236
rfemur -21.0668 -19.3478 24.1862
rtibia 26.3573
rfoot -15.3546 14.398
rtoes 8.34896e-014
lfemur -24.3424 20.2548 -21.2507
ltibia 27.0243
lfoot -7.83047 -25.5457
ltoes 1.04958e-013
441
root 0.646242 16.6033 5.43323 -156.571 83.93 -169.097
lowerback -8.4452 -3.57106 1.57066
upperback -1.69083 -4.86267 0.564254
thorax 2.88738 -2.38856 -0.814875
lowerneck 16.6932 -4.33584 -18.0324
upperneck 15.9065 48.7195 10.9465
head 175.344 59.4032 -29.0562
rclavicle -3.96327e-015 3.97569e-015
rhumerus -40.2273 -20.3447 -76.5979
rradius 17.877
rwrist 22.0518
rhand -37.804 3.29477
rfingers 7.12502
rthumb -10.8502 -26.4049
lclavicle -3.96327e-015 3.97569e-015
lhumerus -40.6383 20.8086 78.654
lradius 20.2701
lwrist -39.9938
lhand -33.7231 4.14187
lfingers 7.12502
lthumb -6.91231 34.009
rfemur -21.1069 -19.4556 24.1654
rtibia 26.3939
rfoot -15.4439 14.4854
rtoes 5.24792e-014
lfemur -24.3577 20.3687 -21.3206
ltibia 27.0221
lfoot -7.79626 -25.6455
ltoes -9.54166e-015
442
root 0.637175 16.6013 5.43051 -157.232 83.9687 -169.759
lowerback -8.39129 -3.58674 1.42412
upperback -1.69465 -4.86971 0.554172
thorax 2.86477 -2.39372 -0.741072
lowerneck 16.7156 -4.32452 -18.0406
upperneck 15.911 48.7179 10.9459
head 175.353 59.3763 -29.0371
rclavicle 1.55549e-014 -3.77691e-015
rhumerus -40.026 -18.3905 -78.1205
rradius 18.6178
rwrist 18.0647
rhand -38.4556 2.38673
rfingers 7.12502
rthumb -11.4787 -27.279
lclavicle 1.55549e-014 -3.77691e-015
lhumerus -40.9339 20.809 78.4449
lradius 20.3655
lwrist -39.8159
lhand -33.6994 4.19816
lfingers 7.12502
lthumb -6.88939 34.0661
rfemur -21.1537 -19.2636 24.0563
rtibia 26.4456
rfoot -15.6783 14.4165
rtoes 4.05521e-014
lfemur -24.4085 20.5 -21.4612
ltibia 26.9969
lfoot -7.75592 -25.7822
ltoes -4.77083e-015
443
root 0.630194 16.6005 5.42683 -156.986 83.9686 -169.502
lowerback -8.36837 -3.59279 1.4132
upperback -1.68861 -4.87666 0.550444
thorax 2.85878 -2.39744 -0.738238
lowerneck 16.7619 -4.31412 -18.0193
upperneck 15.9182 48.7 10.9616
head 175.401 59.3767 -28.9941
rclavicle 3.20416e-014 -2.78299e-015
rhumerus -40.2761 -19.1269 -77.4001
rradius 18.5306
rwrist 19.8403
rhand -37.8996 2.91797
rfingers 7.12502
rthumb -10.9424 -26.7769
lclavicle 3.20416e-014 -2.78299e-015
lhumerus -41.1649 20.5757 78.3877
lradius 20.4714
lwrist -39.3544
lhand -33.7114 4.22269
lfingers 7.12502
lthumb -6.90098 34.0902
rfemur -21.1836 -19.2051 24.0648
rtibia 26.4841
rfoot -15.4202 14.2214
rtoes 7.87187e-014
lfemur -24.442 20.6034 -21.4826
ltibia 26.9859
lfoot -7.69699 -25.8889
ltoes -2.70347e-014
444
root 0.623712 16.5996 5.42217 -157.125 83.9998 -169.63
lowerback -8.35957 -3.60065 1.35365
upperback -1.68363 -4.88212 0.551041
thorax 2.86399 -2.40066 -0.704901
lowerneck 16.8063 -4.29423 -18.0387
upperneck 15.8904 48.627 10.9237
head 175.399 59.4591 -28.9673
rclavicle 1.38652e-014 2.38542e-015
rhumerus -40.1483 -17.9661 -78.3087
rradius 18.928
rwrist 17.3659
rhand -38.4654 2.52859
rfingers 7.12502
rthumb -11.4881 -27.1366
lclavicle 1.38652e-014 2.38542e-015
lhumerus -41.4596 20.7547 78.093
lradius 20.549
lwrist -39.4124
lhand -33.7638 4.27505
lfingers 7.12502
lthumb -6.95158 34.1409
rfemur -21.2044 -19.129 24.0093
rtibia 26.5128
rfoot -15.4042 14.1617
rtoes 0
lfemur -24.4374 20.613 -21.5324
ltibia 26.9665
lfoot -7.66527 -25.8762
ltoes 2.70347e-014
445
root 0.616046 16.599 5.41773 -156.736 83.9895 -169.229
lowerback -8.3486 -3.59139 1.37779
upperback -1.67375 -4.87237 0.558361
thorax 2.86695 -2.39567 -0.709386
lowerneck 16.8361 -4.27491 -18.0544
upperneck 15.8995 48.6338 10.9396
head 175.496 59.3968 -28.8934
rclavicle 4.48384e-014 -1.96797e-014
rhumerus -40.1863 -17.8468 -78.3687
rradius 19.0589
rwrist 17.102
rhand -38.4486 2.66956
rfingers 7.12502
rthumb -11.4719 -26.9965
lclavicle 4.48384e-014 -1.96797e-014
lhumerus -41.7208 20.7373 77.8705
lradius 20.6635
lwrist -39.5226
lhand -33.6307 4.16476
lfingers 7.12502
lthumb -6.82306 34.0348
rfemur -21.2048 -19.0241 24.0305
rtibia 26.5149
rfoot -15.3949 14.0388
rtoes -5.80451e-014
lfemur -24.4562 20.6134 -21.5076
ltibia 26.95
lfoot -7.61331 -25.8721
ltoes 5.08889e-014
446
root 0.609073 16.6013 5.41234 -156.651 84.0013 -169.13
lowerback -8.31467 -3.58195 1.35529
upperback -1.68216 -4.85753 0.570579
thorax 2.84267 -2.38883 -0.680179
lowerneck 16.8839 -4.26289 -18.0754
upperneck 15.8981 48.6073 10.9306
head 175.522 59.3891 -28.8557
rclavicle 6.70898e-016 1.25234e-014
rhumerus -40.3815 -18.4093 -77.7606
rradius 19.0012
rwrist 18.697
rhand -37.9594 3.04788
rfingers 7.12502
rthumb -11.0001 -26.6439
lclavicle 6.70898e-016 1.25234e-014
lhumerus -41.9361 20.8605 77.6759
lradius 20.6235
lwrist -39.3945
lhand -33.8594 4.09994
lfingers 7.12502
lthumb -7.0438 33.9627
rfemur -21.2119 -18.913 24.0008
rtibia 26.5022
rfoot -15.615 14.0782
rtoes 8.66701e-014
lfemur -24.4607 20.5665 -21.5176
ltibia 26.9384
lfoot -7.58033 -25.8224
ltoes 1.59028e-014
447
root 0.603075 16.6032 5.40446 -156.782 84.0097 -169.257
lowerback -8.32978 -3.57366 1.36653
upperback -1.67753 -4.84703 0.545363
thorax 2.85289 -2.38334 -0.712414
lowerneck 16.9269 -4.25731 -18.0642
upperneck 15.8868 48.5582 10.9259
head 175.562 59.4419 -28.8177
rclavicle 3.32592e-014 -1.78906e-015
rhumerus -40.4731 -18.3751 -77.7641
rradius 19.1989
rwrist 18.7789
rhand -37.8734 3.09856
rfingers 7.12502
rthumb -10.9172 -26.5976
lclavicle 3.32592e-014 -1.78906e-015
lhumerus -42.1387 20.7012 77.6386
lradius 20.8347
lwrist -39.0755
lhand -33.7007 4.15707
lfingers 7.12502
lthumb -6.89068 34.0249
rfemur -21.2213 -18.9507 23.9571
rtibia 26.481
rfoot -15.5707 14.1166
rtoes -5.64548e-014
lfemur -24.442 20.4347 -21.538
ltibia 26.9287
lfoot -7.6119 -25.6798
ltoes 3.33958e-014
448
root 0.596632 16.6025 5.40327 -156.05 83.9867 -168.463
lowerback -8.2704 -3.5692 1.35956
upperback -1.65734 -4.84183 0.585246
thorax 2.84504 -2.38125 -0.663889
lowerneck 16.951 -4.25217 -18.0673
upperneck 15.8943 48.5605 10.9346
head 175.599 59.3944 -28.7847
rclavicle 7.82715e-016 6.55989e-015
rhumerus -40.4549 -18.1881 -77.8758
rradius 19.3076
rwrist 18.5267
rhand -37.8508 3.0474
rfingers 7.12502
rthumb -10.8954 -26.6499
lclavicle 7.82715e-016 6.55989e-015
lhumerus -42.2861 20.6994 77.5201
lradius 20.842
lwrist -38.8844
lhand -33.8871 4.01523
lfingers 7.12502
lthumb -7.07062 33.8771
rfemur -21.1644 -18.7589 24.0104
rtibia 26.4723
rfoot -15.5799 13.9226
rtoes 4.13472e-014
lfemur -24.3867 20.3492 -21.4108
ltibia 26.9092
lfoot -7.57892 -25.5965
ltoes 4.45278e-014
449
root 0.590119 16.603 5.39761 -156.085 83.9873 -168.506
lowerback -8.28996 -3.56685 1.33567
upperback -1.66191 -4.83728 0.603876
thorax 2.85486 -2.379 -0.632284
lowerneck 16.9807 -4.24388 -18.0949
upperneck 15.8861 48.5377 10.9145
head 175.607 59.346 -28.7547
rclavicle -2.7482e-014 4.57205e-015
rhumerus -40.2699 -17.0456 -78.796
rradius 19.7013
rwrist 15.9809
rhand -38.3582 2.65905
rfingers 7.12502
rthumb -11.3847 -27.0119
lclavicle -2.7482e-014 4.57205e-015
lhumerus -42.4873 20.6952 77.4472
lradius 21.0357
lwrist -38.7607
lhand -33.7312 4.15003
lfingers 7.12502
lthumb -6.9201 34.0169
rfemur -21.2004 -18.7462 23.9893
rtibia 26.4696
rfoot -15.5537 13.9123
rtoes -8.0309e-014
lfemur -24.3873 20.1575 -21.4005
ltibia 26.8909
lfoot -7.52854 -25.3951
ltoes -1.74931e-014
450
root 0.584497 16.6032 5.39282 -156.27 84.0018 -168.701
lowerback -8.32751 -3.55822 1.32578
upperback -1.65933 -4.8245 0.573489
thorax 2.87673 -2.37233 -0.65937
lowerneck 17.0129 -4.25435 -18.0654
upperneck 15.8602 48.4669 10.895
head 175.609 59.3924 -28.7366
rclavicle 8.27441e-015 -1.19271e-015
rhumerus -40.3615 -17.7595 -78.2188
rradius 19.5143
rwrist 17.7054
rhand -37.8419 3.18187
rfingers 7.12502
rthumb -10.8867 -26.5159
lclavicle 8.27441e-015 -1.19271e-015
lhumerus -42.6014 20.5544 77.3951
lradius 21.1011
lwrist -38.4862
lhand -33.7855 4.1002
lfingers 7.12502
lthumb -6.97254 33.9654
rfemur -21.227 -18.7198 23.9439
rtibia 26.4566
rfoot -15.5437 13.8943
rtoes -4.21423e-014
lfemur -24.4024 20.0736 -21.4402
ltibia 26.8946
lfoot -7.51547 -25.307
ltoes 3.81667e-014
